<svg width="1080" height="1080" viewBox="0 0 1080 1080" fill="none" xmlns="http://www.w3.org/2000/svg">
<path d="M0 540C0 241.766 241.766 0 540 0C838.234 0 1080 241.766 1080 540C1080 838.234 838.234 1080 540 1080C241.766 1080 0 838.234 0 540Z" fill="#131313"/>
<path d="M294.409 335.537C294.409 317.65 308.91 303.15 326.797 303.15C344.683 303.15 359.184 317.65 359.184 335.537V755.818C359.184 773.705 344.683 788.206 326.797 788.206C308.91 788.206 294.409 773.705 294.409 755.818V335.537Z" fill="white"/>
<path d="M722.274 325.273C722.274 307.386 736.774 292.886 754.661 292.886C772.548 292.886 787.048 307.386 787.048 325.273V745.554C787.048 763.441 772.548 777.941 754.661 777.941C736.774 777.941 722.274 763.441 722.274 745.554V325.273Z" fill="white"/>
<path d="M303.161 349.415C291.369 337.279 292.917 319.393 306.62 309.465C320.322 299.536 340.989 301.325 352.781 313.461L544.768 511.038C556.56 523.173 555.012 541.059 541.31 550.988C527.607 560.916 506.94 559.127 495.148 546.992L303.161 349.415Z" fill="white"/>
<path d="M729.029 302.973C740.821 290.838 761.488 289.049 775.19 298.977C788.892 308.905 790.441 326.792 778.649 338.927L351.971 778.027C340.179 790.162 319.512 791.951 305.81 782.023C292.108 772.095 290.559 754.208 302.352 742.073L729.029 302.973Z" fill="white"/>
<path d="M460 489.2V489.2C494.844 518.125 494.745 571.928 460.454 601.436V601.436" stroke="white" stroke-width="30"/>
</svg>
